<svg width="470" height="265" viewBox="0 0 470 265" fill="none" xmlns="http://www.w3.org/2000/svg">
<g filter="url(#filter0_d_10_8)">
<path d="M157 50.5C122 -0.499992 104 -20.5 4.00003 28V170.5C4.00003 178.5 26.6981 197.05 64.5 217.5C95 234 124 251 183 208C242 165 271.5 210 311 234C350.5 258 455.953 205.274 465 152C474 99 376.5 145.5 366.5 108C358.899 79.4961 315.5 50.5 264.5 72C213.5 93.5 192 101.5 157 50.5Z" fill="url(#paint0_linear_10_8)" shape-rendering="crispEdges"/>
<path d="M243 28C279 13.5 275 51.5 243 64C217.4 74 207 42.5 243 28Z" fill="url(#paint1_linear_10_8)" shape-rendering="crispEdges"/>
<path d="M271.5 223.5C302 236 296.5 251.5 271.5 256C251.5 259.6 231.24 207 271.5 223.5Z" fill="url(#paint2_linear_10_8)" shape-rendering="crispEdges"/>
</g>
<defs>
<filter id="filter0_d_10_8" x="3.05176e-05" y="0.278748" width="469.586" height="263.899" filterUnits="userSpaceOnUse" color-interpolation-filters="sRGB">
<feFlood flood-opacity="0" result="BackgroundImageFix"/>
<feColorMatrix in="SourceAlpha" type="matrix" values="0 0 0 0 0 0 0 0 0 0 0 0 0 0 0 0 0 0 127 0" result="hardAlpha"/>
<feOffset dy="4"/>
<feGaussianBlur stdDeviation="2"/>
<feComposite in2="hardAlpha" operator="out"/>
<feColorMatrix type="matrix" values="0 0 0 0 0 0 0 0 0 0 0 0 0 0 0 0 0 0 0.25 0"/>
<feBlend mode="normal" in2="BackgroundImageFix" result="effect1_dropShadow_10_8"/>
<feBlend mode="normal" in="SourceGraphic" in2="effect1_dropShadow_10_8" result="shape"/>
</filter>
<linearGradient id="paint0_linear_10_8" x1="466" y1="256" x2="-50.5" y2="256" gradientUnits="userSpaceOnUse">
<stop stop-color="#13B2F7"/>
<stop offset="1" stop-color="#0068B4" stop-opacity="0"/>
</linearGradient>
<linearGradient id="paint1_linear_10_8" x1="466" y1="256" x2="-50.5" y2="256" gradientUnits="userSpaceOnUse">
<stop stop-color="#13B2F7"/>
<stop offset="1" stop-color="#0068B4" stop-opacity="0"/>
</linearGradient>
<linearGradient id="paint2_linear_10_8" x1="466" y1="256" x2="-50.5" y2="256" gradientUnits="userSpaceOnUse">
<stop stop-color="#13B2F7"/>
<stop offset="1" stop-color="#0068B4" stop-opacity="0"/>
</linearGradient>
</defs>
</svg>
