<svg width="414" height="196" viewBox="0 0 414 196" fill="none" xmlns="http://www.w3.org/2000/svg">
<g filter="url(#filter0_d_1_3)">
<path d="M287.272 50.0353C359.556 71.1832 352.327 0.588188 410 0.588188V187.796H6.04898C6.04897 190.446 1.43877 166.656 6.04899 151.262C7.86513 145.198 11.1714 118.142 46.5164 99.4825C89.0328 77.0372 128.241 91.0859 152.039 68.2281C177.139 44.1194 214.987 28.8874 287.272 50.0353Z" fill="url(#paint0_linear_1_3)"/>
<path d="M81.8614 35.3745C110.547 27.6661 132.98 64.0578 100.302 76.425C67.6243 88.7922 49.3467 44.1119 81.8614 35.3745Z" fill="url(#paint1_linear_1_3)"/>
<path d="M275.49 10.1845C297.517 10.1845 298.541 35.3745 275.49 35.3745C255.214 35.3745 253.071 10.1845 275.49 10.1845Z" fill="url(#paint2_linear_1_3)"/>
</g>
<defs>
<filter id="filter0_d_1_3" x="0" y="0.588188" width="414" height="195.412" filterUnits="userSpaceOnUse" color-interpolation-filters="sRGB">
<feFlood flood-opacity="0" result="BackgroundImageFix"/>
<feColorMatrix in="SourceAlpha" type="matrix" values="0 0 0 0 0 0 0 0 0 0 0 0 0 0 0 0 0 0 127 0" result="hardAlpha"/>
<feOffset dy="4"/>
<feGaussianBlur stdDeviation="2"/>
<feComposite in2="hardAlpha" operator="out"/>
<feColorMatrix type="matrix" values="0 0 0 0 0 0 0 0 0 0 0 0 0 0 0 0 0 0 0.25 0"/>
<feBlend mode="normal" in2="BackgroundImageFix" result="effect1_dropShadow_1_3"/>
<feBlend mode="normal" in="SourceGraphic" in2="effect1_dropShadow_1_3" result="shape"/>
</filter>
<linearGradient id="paint0_linear_1_3" x1="123.5" y1="188" x2="383.574" y2="187.648" gradientUnits="userSpaceOnUse">
<stop stop-color="#251B96"/>
<stop offset="1" stop-color="#E077D6"/>
</linearGradient>
<linearGradient id="paint1_linear_1_3" x1="22.9531" y1="187.648" x2="383.574" y2="187.648" gradientUnits="userSpaceOnUse">
<stop stop-color="#251B96"/>
<stop offset="1" stop-color="#E077D6"/>
</linearGradient>
<linearGradient id="paint2_linear_1_3" x1="22.9531" y1="187.648" x2="383.574" y2="187.648" gradientUnits="userSpaceOnUse">
<stop stop-color="#251B96"/>
<stop offset="1" stop-color="#E077D6"/>
</linearGradient>
</defs>
</svg>
