<svg width="439" height="189" viewBox="0 0 439 189" fill="none" xmlns="http://www.w3.org/2000/svg">
<g filter="url(#filter0_d_10_5)">
<path d="M318.5 22.5001C360.5 16.1089 375 -1.99993 435 1.00007V143C431 145.667 412.6 130 371 158C319 193 290.632 144.701 220.5 129C153.5 114 133.481 223.207 23 124C-26 80 37.3624 74.458 59.9998 72.0002C147.5 62.5 127 21.5001 168.5 13.5001C264.758 -5.05571 272.5 29.5001 318.5 22.5001Z" fill="url(#paint0_linear_10_5)" shape-rendering="crispEdges"/>
<path d="M55.5 18.5001C93.5 18.5001 88.9998 35.5001 49.9998 46.0001C18.7998 54.4001 30.0002 18.5001 55.5 18.5001Z" fill="url(#paint1_linear_10_5)" shape-rendering="crispEdges"/>
<path d="M241 152.5C272 161 262 180.5 241 180.5C224.2 180.5 218 146.194 241 152.5Z" fill="url(#paint2_linear_10_5)" shape-rendering="crispEdges"/>
</g>
<defs>
<filter id="filter0_d_10_5" x="0.867645" y="0.667419" width="438.132" height="187.833" filterUnits="userSpaceOnUse" color-interpolation-filters="sRGB">
<feFlood flood-opacity="0" result="BackgroundImageFix"/>
<feColorMatrix in="SourceAlpha" type="matrix" values="0 0 0 0 0 0 0 0 0 0 0 0 0 0 0 0 0 0 127 0" result="hardAlpha"/>
<feOffset dy="4"/>
<feGaussianBlur stdDeviation="2"/>
<feComposite in2="hardAlpha" operator="out"/>
<feColorMatrix type="matrix" values="0 0 0 0 0 0 0 0 0 0 0 0 0 0 0 0 0 0 0.25 0"/>
<feBlend mode="normal" in2="BackgroundImageFix" result="effect1_dropShadow_10_5"/>
<feBlend mode="normal" in="SourceGraphic" in2="effect1_dropShadow_10_5" result="shape"/>
</filter>
<linearGradient id="paint0_linear_10_5" x1="392" y1="-13" x2="-90.0002" y2="-12.9999" gradientUnits="userSpaceOnUse">
<stop stop-color="#10C6EE"/>
<stop offset="1" stop-color="#0019FC" stop-opacity="0"/>
</linearGradient>
<linearGradient id="paint1_linear_10_5" x1="392" y1="-13" x2="-90.0002" y2="-12.9999" gradientUnits="userSpaceOnUse">
<stop stop-color="#10C6EE"/>
<stop offset="1" stop-color="#0019FC" stop-opacity="0"/>
</linearGradient>
<linearGradient id="paint2_linear_10_5" x1="392" y1="-13" x2="-90.0002" y2="-12.9999" gradientUnits="userSpaceOnUse">
<stop stop-color="#10C6EE"/>
<stop offset="1" stop-color="#0019FC" stop-opacity="0"/>
</linearGradient>
</defs>
</svg>
