<svg width="303" height="160" viewBox="0 0 303 160" fill="none" xmlns="http://www.w3.org/2000/svg">
<g filter="url(#filter0_d_10_9)">
<path d="M122.659 112.496C96.5563 127.918 97.2761 158.945 4 150.599V23.1342C20.681 6.35057 37.9513 0 80.0494 0C132.672 0 164.658 39.4642 203.351 23.1342C242.044 6.80418 306.533 63.5055 298.278 101.155C290.024 138.805 257.311 127.918 222.229 101.155C194.164 79.7448 144.155 99.7945 122.659 112.496Z" fill="url(#paint0_linear_10_9)" shape-rendering="crispEdges"/>
<path d="M142.474 143.341C114.615 143.341 109.972 129.998 132.672 122.929C172.294 110.591 170.333 143.341 142.474 143.341Z" fill="url(#paint1_linear_10_9)" shape-rendering="crispEdges"/>
</g>
<defs>
<filter id="filter0_d_10_9" x="0" y="0" width="303" height="160" filterUnits="userSpaceOnUse" color-interpolation-filters="sRGB">
<feFlood flood-opacity="0" result="BackgroundImageFix"/>
<feColorMatrix in="SourceAlpha" type="matrix" values="0 0 0 0 0 0 0 0 0 0 0 0 0 0 0 0 0 0 127 0" result="hardAlpha"/>
<feOffset dy="4"/>
<feGaussianBlur stdDeviation="2"/>
<feComposite in2="hardAlpha" operator="out"/>
<feColorMatrix type="matrix" values="0 0 0 0 0 0 0 0 0 0 0 0 0 0 0 0 0 0 0.25 0"/>
<feBlend mode="normal" in2="BackgroundImageFix" result="effect1_dropShadow_10_9"/>
<feBlend mode="normal" in="SourceGraphic" in2="effect1_dropShadow_10_9" result="shape"/>
</filter>
<linearGradient id="paint0_linear_10_9" x1="-29.839" y1="15.8764" x2="361.73" y2="12.9426" gradientUnits="userSpaceOnUse">
<stop stop-color="#2769CB"/>
<stop offset="1" stop-color="#1456FF" stop-opacity="0"/>
</linearGradient>
<linearGradient id="paint1_linear_10_9" x1="-29.839" y1="15.8764" x2="361.73" y2="12.9426" gradientUnits="userSpaceOnUse">
<stop stop-color="#2769CB"/>
<stop offset="1" stop-color="#1456FF" stop-opacity="0"/>
</linearGradient>
</defs>
</svg>
